<svg xmlns="http://www.w3.org/2000/svg">
  <!-- logo1 94-26, logo2 70-26, logo3 14-8 -->
  <symbol id="logo1" viewBox="0 0 94 26">
    <path
      d="M 82 9 Q 82 10 83 10 T 84 9 T 83 8 T 82 9 Z M 78 20 V 10 H 79 Q 80 10 80 9 V 8 H 81 Q 82 8 82 7 V 6 H 84 V 7 Q 84 8 85 8 H 86 V 9 Q 86 10 87 10 H 88 V 20 H 86 V 11 Q 86 10 85 10 T 84 11 V 12 H 82 V 11 Q 82 10 81 10 T 80 11 V 20 H 78 Z M 66 20 V 10 H 67 Q 68 10 68 9 T 67 8 H 66 V 6 H 68 V 7 Q 68 8 69 8 H 70 V 9 Q 70 10 71 10 H 72 V 11 Q 72 12 73 12 T 74 11 V 6 H 76 V 12 H 75 Q 74 12 74 13 T 75 14 H 76 V 20 H 74 V 15 Q 74 14 73 14 H 72 V 13 Q 72 12 71 12 H 70 V 11 Q 70 10 69 10 T 68 11 V 20 H 66 Z M 58 20 V 18 H 59 Q 60 18 60 17 V 9 Q 60 8 59 8 H 58 V 6 H 60 V 7 Q 60 8 61 8 T 62 7 V 6 H 64 V 8 H 63 Q 62 8 62 9 V 17 Q 62 18 63 18 H 64 V 20 H 62 V 19 Q 62 18 61 18 T 60 19 V 20 H 58 Z M 46 20 V 14 H 47 Q 48 14 48 13 T 47 12 H 46 V 6 H 48 V 11 Q 48 12 49 12 T 50 11 V 10 H 51 Q 52 10 52 9 V 8 H 53 Q 54 8 54 7 V 6 H 56 V 8 H 55 Q 54 8 54 9 V 10 H 53 Q 52 10 52 11 V 12 H 51 Q 50 12 50 13 T 51 14 H 52 V 15 Q 52 16 53 16 H 54 V 17 Q 54 18 55 18 H 56 V 20 H 54 V 19 Q 54 18 53 18 H 52 V 17 Q 52 16 51 16 H 50 V 15 Q 50 14 49 14 T 48 15 V 20 H 46 Z M 38 9 Q 38 10 39 10 T 40 9 T 39 8 T 38 9 Z M 34 20 V 10 H 35 Q 36 10 36 9 V 8 H 37 Q 38 8 38 7 V 6 H 40 V 7 Q 40 8 41 8 H 42 V 9 Q 42 10 43 10 H 44 V 20 H 42 V 11 Q 42 10 41 10 T 40 11 V 12 H 38 V 11 Q 38 10 37 10 T 36 11 V 20 H 34 Z M 24 16 V 15 Q 24 14 23 14 H 22 V 10 H 23 Q 24 10 24 9 T 23 8 H 22 V 6 H 24 V 7 Q 24 8 25 8 H 26 V 9 Q 26 10 27 10 T 28 9 V 8 H 29 Q 30 8 30 7 V 6 H 32 V 8 H 31 Q 30 8 30 9 T 31 10 H 32 V 20 H 30 V 11 Q 30 10 29 10 T 28 11 V 12 H 26 V 11 Q 26 10 25 10 T 24 11 V 13 Q 24 14 25 14 H 28 V 16 H 24 Z M 18 18 V 6 H 20 V 17 Q 20 18 21 18 H 28 V 20 H 20 V 19 Q 20 18 19 18 H 18 Z M 10 9 Q 10 10 11 10 T 12 9 T 11 8 T 10 9 Z M 6 20 V 10 H 7 Q 8 10 8 9 V 8 H 9 Q 10 8 10 7 V 6 H 12 V 7 Q 12 8 13 8 H 14 V 9 Q 14 10 15 10 H 16 V 20 H 14 V 11 Q 14 10 13 10 T 12 11 V 12 H 10 V 11 Q 10 10 9 10 T 8 11 V 20 H 6 Z">
    </path>
  </symbol>

  <symbol id="logo2" viewBox="0 0 70 26">
    <path
      d="M 6 18 H 7 Q 8 18 8 19 V 20 H 14 V 19 Q 14 18 15 18 Q 16 18 16 19 V 20 H 22 V 19 Q 22 18 23 18 Q 24 18 24 19 V 20 H 32 V 19 Q 32 18 33 18 Q 34 18 34 19 V 20 H 36 V 18 H 35 Q 34 18 34 17 V 16 H 33 Q 32 16 32 15 V 14 H 31 Q 30 14 30 13 Q 30 12 31 12 H 32 V 11 Q 32 10 33 10 H 34 V 9 Q 34 8 35 8 H 36 V 6 H 34 V 7 Q 34 8 33 8 H 32 V 9 Q 32 10 31 10 H 30 V 11 Q 30 12 29 12 H 28 V 14 H 29 Q 30 14 30 15 V 16 H 31 Q 32 16 32 17 Q 32 18 31 18 H 25 Q 24 18 24 17 Q 24 16 25 16 H 26 V 14 H 24 V 15 Q 24 16 23 16 H 22 V 17 Q 22 18 21 18 H 17 Q 16 18 16 17 Q 16 16 17 16 H 18 V 14 H 16 V 15 Q 16 16 15 16 H 14 V 17 Q 14 18 13 18 H 9 Q 8 18 8 17 V 9 Q 8 8 9 8 H 10 V 6 H 8 V 7 Q 8 8 7 8 H 6 V 18 Z M 16 12 H 18 V 10 H 16 V 12 Z M 20 24 H 22 V 22 H 20 V 24 Z M 24 24 H 26 V 22 H 24 V 24 Z M 38 18 H 39 Q 40 18 40 19 V 20 H 46 V 19 Q 46 18 47 18 Q 48 18 48 19 V 20 H 52 V 19 Q 52 18 53 18 Q 54 18 54 19 V 20 H 56 V 19 Q 56 18 57 18 H 58 V 8 H 57 Q 56 8 56 7 V 6 H 54 V 8 H 55 Q 56 8 56 9 V 17 Q 56 18 55 18 Q 54 18 54 17 V 16 H 53 Q 52 16 52 15 V 14 H 48 V 15 Q 48 16 47 16 H 46 V 17 Q 46 18 45 18 H 41 Q 40 18 40 17 V 9 Q 40 8 41 8 H 42 V 6 H 40 V 7 Q 40 8 39 8 H 38 V 18 Z M 49 18 Q 48 18 48 17 Q 48 16 49 16 H 51 Q 52 16 52 17 Q 52 18 51 18 H 49 Z M 60 20 H 62 V 19 Q 62 18 63 18 H 64 V 8 H 63 Q 62 8 62 7 V 6 H 60 V 8 H 61 Q 62 8 62 9 V 17 Q 62 18 61 18 H 60 V 20 Z">
    </path>
  </symbol>

  <symbol id="logo3" viewBox="0 0 32 26">
    <path
      d="M 9 17 H 11 V 16 Q 11 15 12 15 H 13 V 14 Q 13 13 14 13 H 15 V 17 H 17 V 13 H 18 Q 19 13 19 14 V 15 H 20 Q 21 15 21 16 V 17 H 23 V 15 H 22 Q 21 15 21 14 V 13 H 20 Q 19 13 19 12 Q 19 11 20 11 H 21 V 9 H 19 V 10 Q 19 11 18 11 H 17 V 9 H 15 V 11 H 14 Q 13 11 13 10 V 9 H 11 V 11 H 12 Q 13 11 13 12 Q 13 13 12 13 H 11 V 14 Q 11 15 10 15 H 9 V 17 Z">
    </path>
  </symbol>

  <symbol id="leftIcon" viewBox="0 0 18 12">
    <path
      d="M 17 5 H 5 V 4 Q 5 3 6 3 H 7 V 1 H 5 V 2 Q 5 3 4 3 H 3 V 4 Q 3 5 2 5 H 1 V 7 H 2 Q 3 7 3 8 V 9 H 4 Q 5 9 5 10 V 11 H 7 V 9 H 6 Q 5 9 5 8 V 7 H 17 V 5 Z">
    </path>
  </symbol>

  <symbol id="rightIcon" viewBox="0 0 18 12">
    <path
      d="M 1 7 H 13 V 8 Q 13 9 12 9 H 11 V 11 H 13 V 10 Q 13 9 14 9 H 15 V 8 Q 15 7 16 7 H 17 V 5 H 16 Q 15 5 15 4 V 3 H 14 Q 13 3 13 2 V 1 H 11 V 3 H 12 Q 13 3 13 4 V 5 H 1 V 7 Z">
    </path>
  </symbol>

</svg>